<?xml version="1.0" encoding="UTF-8"?>
<svg id="Camada_2" data-name="Camada 2" xmlns="http://www.w3.org/2000/svg" viewBox="0 0 606.68 153.98">
  <defs>
    <style>
      .cls-1 {
        fill: #f8c100;
      }
    </style>
  </defs>
  <g id="Camada_1-2" data-name="Camada 1">
    <g>
      <path class="cls-1" d="M94.73,94.11c.02,9.66-7.44,17.9-17.28,17.89l-60.94-.04c-9.1,0-16.26-7.83-16.33-16.36l-.18-20.61,32.75-.05.2,9.14,28.62.21-.05-10.7-49.1-9.49C5.23,62.71.15,55.62.13,48.56l-.07-29.19C.04,9.26,7,.28,18.16.31l59.69.14c9.49.02,16.7,8.24,16.78,17.02l.2,21.28h-32.79s-.41-9.22-.41-9.22l-28-.05c-.76,3.43-.83,6.76-.22,10.99l47.65,8.92c7.55,1.41,13.6,8.26,13.61,16.19l.05,28.53Z"/>
      <path class="cls-1" d="M195.9.05l-.09,95.23c0,9.28-8.35,16.74-17.25,16.73l-56.07-.04c-9.72,0-15.92-8.37-16.62-17.57l-.05-94.29,34.32-.03.03,84.03,21.41.13-.06-84.06,34.39-.13Z"/>
      <polygon class="cls-1" points="578.69 112.03 545.91 112.13 545.92 31 518.22 30.76 518.22 .11 606.54 .1 606.68 30.61 578.86 30.91 578.69 112.03"/>
      <rect class="cls-1" x="472.91" y=".01" width="34.92" height="112.35"/>
      <polygon class="cls-1" points="274.33 94.58 293.12 69.51 293.17 75.62 300.12 68.63 307.04 71.04 327.31 50.33 327.34 .16 292.19 .18 270.57 35.87 270.57 35.86 266.62 42.01 241.3 .2 206.15 .18 206.21 112.29 239.96 112.35 240.37 69.53 265.67 103.29 274.33 94.58"/>
      <path class="cls-1" d="M333.43,112.35c.83-2.81,2.22-4.61,3.72-7.14l-3.94-5.53,9.79-9.09-5.91-4.22-6.24-14.03,7.05,3.62-9.07-14.64-9.75,9.82-12.58,12.56.25,10.55-7.52-11.03-33.54,29.11h-.95s34.54-34.75,34.54-34.75l6.94,2.42,6.86-7.23,18.04-18.2,17.4,17.25,11.86,11.63,11.38-6.01,34.86,34.9c-6.56-2.79-13.41-8.29-19.62-11.71l5.44,11.63-10.74-9.15-4.2-4.06,3.22-4.08c-2.68-2.23-5.51-3.56-7.92-5.97-1.52-1.51-1.96-4.9-2.85-6.83l-14.08,9.64-5.59-6.19.22,8.08-17.04,18.65Z"/>
      <polygon class="cls-1" points="423.63 .18 402.01 35.87 402.01 35.86 398.06 42.01 372.74 .2 337.59 .18 337.62 49.14 363 74.19 371.81 69.54 371.81 69.53 371.82 69.54 374.4 68.17 403.63 97.44 424.56 69.51 424.97 112.33 458.72 112.27 458.78 .16 423.63 .18"/>
      <g>
        <path class="cls-1" d="M1.54,137.01h6.2c1.58,0,2.93.54,4.04,1.62,1.09,1.08,1.64,2.4,1.64,3.97s-.55,2.89-1.64,3.97c-1.11,1.08-2.46,1.62-4.04,1.62h-2.92v5.47H1.54v-16.63ZM4.82,145.11h2.92c.7,0,1.28-.24,1.74-.72.46-.48.69-1.08.69-1.79s-.23-1.33-.69-1.81c-.46-.47-1.04-.71-1.74-.71h-2.92v5.04Z"/>
        <path class="cls-1" d="M30.73,146.77v3.73h7.01v3.14h-10.29v-16.63h10.17v3.14h-6.89v3.54h6.3v3.09h-6.3Z"/>
        <path class="cls-1" d="M64.59,153.64h-3.54l-3.35-5.78h-2.5v5.78h-3.28v-16.63h6.65c1.54,0,2.84.54,3.92,1.62,1.08,1.08,1.62,2.38,1.62,3.9,0,1.03-.29,1.98-.88,2.87-.59.88-1.36,1.54-2.33,1.98l3.68,6.27ZM58.58,140.07h-3.37v4.92h3.37c.62,0,1.15-.24,1.59-.72.44-.48.67-1.07.67-1.75s-.22-1.26-.67-1.73c-.44-.47-.97-.71-1.59-.71Z"/>
        <path class="cls-1" d="M83.82,153.98c-1.63,0-3.01-.36-4.13-1.09-1.12-.73-1.93-1.73-2.4-3.02l2.8-1.64c.65,1.7,1.92,2.54,3.83,2.54.89,0,1.55-.16,2-.48.44-.32.67-.74.67-1.28,0-.59-.26-1.04-.78-1.35-.52-.33-1.46-.69-2.8-1.07-1.46-.44-2.61-.96-3.45-1.54-1.05-.78-1.57-1.92-1.57-3.42s.53-2.72,1.59-3.59c1.06-.9,2.35-1.36,3.87-1.36,1.33,0,2.51.33,3.54.97,1.03.65,1.83,1.57,2.4,2.76l-2.76,1.59c-.67-1.43-1.73-2.14-3.18-2.14-.67,0-1.2.15-1.59.46-.4.31-.59.71-.59,1.2,0,.52.21.95.64,1.28.48.33,1.32.68,2.52,1.05l1.14.38c.21.06.56.2,1.07.4.48.18.82.34,1.05.5.78.47,1.3.97,1.57,1.47.41.67.62,1.45.62,2.35,0,1.54-.56,2.76-1.69,3.66-1.12.9-2.58,1.35-4.35,1.35Z"/>
        <path class="cls-1" d="M117.75,151.48c-1.68,1.66-3.72,2.49-6.13,2.49s-4.45-.83-6.13-2.49c-1.66-1.7-2.5-3.75-2.5-6.16s.83-4.47,2.5-6.13c1.68-1.68,3.72-2.52,6.13-2.52s4.45.84,6.13,2.52c1.68,1.66,2.52,3.71,2.52,6.13s-.84,4.48-2.52,6.16ZM107.8,149.25c1.01,1.01,2.29,1.52,3.83,1.52s2.81-.51,3.83-1.52c1.03-1.03,1.54-2.34,1.54-3.92s-.51-2.89-1.54-3.92c-1.03-1.03-2.3-1.54-3.83-1.54s-2.8.51-3.83,1.54c-1.03,1.03-1.54,2.34-1.54,3.92s.51,2.89,1.54,3.92Z"/>
        <path class="cls-1" d="M144.08,147.16v-10.15h3.28v16.63h-2.5l-7.13-10.17v10.17h-3.28v-16.63h2.5l7.13,10.15Z"/>
        <path class="cls-1" d="M176.59,153.64h-3.57l-1-2.99h-6.63l-1,2.99h-3.54l5.82-16.63h4.06l5.85,16.63ZM168.73,140.79l-2.28,6.8h4.56l-2.28-6.8Z"/>
        <path class="cls-1" d="M193.37,137.01v13.5h6.34v3.14h-9.62v-16.63h3.28Z"/>
        <path class="cls-1" d="M230.04,137.01h12.24v3.14h-4.49v13.5h-3.28v-13.5h-4.47v-3.14Z"/>
        <path class="cls-1" d="M268.65,153.64h-3.54l-3.35-5.78h-2.5v5.78h-3.28v-16.63h6.65c1.54,0,2.84.54,3.92,1.62,1.08,1.08,1.62,2.38,1.62,3.9,0,1.03-.29,1.98-.88,2.87-.59.88-1.36,1.54-2.33,1.98l3.68,6.27ZM262.64,140.07h-3.38v4.92h3.38c.62,0,1.15-.24,1.59-.72.44-.48.67-1.07.67-1.75s-.22-1.26-.67-1.73c-.44-.47-.97-.71-1.59-.71Z"/>
        <path class="cls-1" d="M296.72,153.64h-3.56l-1-2.99h-6.63l-1,2.99h-3.54l5.82-16.63h4.06l5.85,16.63ZM288.85,140.79l-2.28,6.8h4.56l-2.28-6.8Z"/>
        <path class="cls-1" d="M310.22,153.64v-16.63h3.28v16.63h-3.28Z"/>
        <path class="cls-1" d="M338.09,147.16v-10.15h3.28v16.63h-2.5l-7.13-10.17v10.17h-3.28v-16.63h2.5l7.13,10.15Z"/>
        <path class="cls-1" d="M359.62,146.77v3.73h7.01v3.14h-10.29v-16.63h10.17v3.14h-6.89v3.54h6.3v3.09h-6.3Z"/>
        <path class="cls-1" d="M393.49,153.64h-3.54l-3.35-5.78h-2.5v5.78h-3.28v-16.63h6.65c1.54,0,2.84.54,3.92,1.62,1.08,1.08,1.62,2.38,1.62,3.9,0,1.03-.29,1.98-.88,2.87-.59.88-1.36,1.54-2.33,1.98l3.68,6.27ZM387.48,140.07h-3.38v4.92h3.38c.62,0,1.15-.24,1.59-.72.44-.48.67-1.07.67-1.75s-.22-1.26-.67-1.73c-.44-.47-.97-.71-1.59-.71Z"/>
        <path class="cls-1" d="M439.38,153.64h-3.56l-1-2.99h-6.63l-1,2.99h-3.54l5.82-16.63h4.06l5.85,16.63ZM431.51,140.79l-2.28,6.8h4.56l-2.28-6.8Z"/>
        <path class="cls-1" d="M460.17,153.98c-2.49,0-4.55-.83-6.2-2.49-1.63-1.65-2.45-3.7-2.45-6.16s.82-4.52,2.45-6.15c1.65-1.66,3.71-2.5,6.2-2.5,1.5,0,2.9.35,4.17,1.06s2.27,1.66,2.98,2.86l-2.83,1.64c-.41-.74-1-1.33-1.76-1.75-.76-.42-1.62-.63-2.57-.63-1.62,0-2.92.51-3.92,1.52-.98,1.03-1.47,2.35-1.47,3.95s.49,2.89,1.47,3.92c1,1.01,2.3,1.52,3.92,1.52.95,0,1.81-.21,2.58-.63.77-.42,1.35-.99,1.75-1.72l2.83,1.64c-.71,1.21-1.71,2.16-2.98,2.87s-2.67,1.06-4.17,1.06Z"/>
        <path class="cls-1" d="M495.41,153.64h-3.56l-1-2.99h-6.63l-1,2.99h-3.54l5.82-16.63h4.06l5.85,16.63ZM487.55,140.79l-2.28,6.8h4.56l-2.28-6.8Z"/>
        <path class="cls-1" d="M508.91,137.01h6.61c2.28,0,4.18.8,5.7,2.4,1.54,1.58,2.31,3.56,2.31,5.92s-.77,4.33-2.31,5.92c-1.52,1.6-3.42,2.4-5.7,2.4h-6.61v-16.63ZM512.19,150.51h3.33c1.44,0,2.61-.48,3.52-1.43.9-.98,1.35-2.23,1.35-3.76s-.45-2.78-1.35-3.73c-.9-.97-2.08-1.45-3.52-1.45h-3.33v10.36Z"/>
        <path class="cls-1" d="M541.02,146.77v3.73h7.01v3.14h-10.29v-16.63h10.17v3.14h-6.89v3.54h6.3v3.09h-6.3Z"/>
        <path class="cls-1" d="M575.12,137.01h3.38v16.63h-3.26v-10.79l-4.68,7.72h-.38l-4.68-7.7v10.77h-3.28v-16.63h3.38l4.78,7.87,4.75-7.87Z"/>
        <path class="cls-1" d="M602.92,137.01h3.71l-5.7,10.15v6.49h-3.26v-6.49l-5.68-10.15h3.71l3.61,6.94,3.61-6.94Z"/>
      </g>
      <rect class="cls-1" y="119.28" width="606.68" height="7.66"/>
    </g>
  </g>
</svg>