<svg xmlns="http://www.w3.org/2000/svg" id="Camada_2" data-name="Camada 2" viewBox="0 0 1253.98 276.64"><defs><style>      .cls-1 {        fill: #fe9ec2;      }      .cls-1, .cls-2, .cls-3, .cls-4 {        stroke-width: 0px;      }      .cls-2 {        fill: #ffb3d0;      }      .cls-3 {        fill: #fff;      }      .cls-4, .cls-5 {        fill: #ffc700;      }      .cls-5 {        font-family: Poppins-SemiBold, Poppins;        font-size: 42.92px;        font-weight: 600;      }    </style></defs><g id="Layer_1" data-name="Layer 1"><g><polygon class="cls-3" points="604.01 72.31 624.52 92.97 645.7 71.64 625.18 50.98 604.36 30 583.83 9.33 562.67 30.65 583.18 51.33 604.01 72.31 604.01 72.31"/><polygon class="cls-3" points="729.03 113.8 708.28 134.69 687.11 156.02 666.43 176.85 645.77 197.66 661.94 213.98 666.28 218.34 670.62 213.98 686.96 197.51 707.62 176.7 728.8 155.36 749.54 134.46 769.96 113.89 791.14 92.56 811.65 113.23 911.65 213.98 951.98 213.98 831.81 92.91 811.3 72.25 790.79 51.57 770.62 71.89 749.45 93.23 729.03 113.8 729.03 113.8"/><polygon class="cls-3" points="463.38 213.98 504.41 213.98 563.02 154.94 542.49 134.28 463.38 213.98 463.38 213.98"/><g><g><polygon class="cls-4" points="1253.98 92.59 1253.98 59.83 1117.92 59.83 1117.92 92.59 1167.29 92.59 1167.29 212.26 1204.61 212.26 1204.61 92.59 1253.98 92.59"/><rect class="cls-4" x="987.89" y="59.83" width="37.54" height="152.44"/><path class="cls-4" d="M358.69,59.83h-37.54v83.73c0,11.52-2.73,20.66-8.19,27.42-5.46,6.75-12.74,10.12-21.84,10.12-9.55,0-17.21-3.38-22.98-10.12-5.77-6.75-8.65-15.89-8.65-27.42V59.83h-37.54v83.73c0,21.84,6.33,39.32,19,52.44,12.67,13.12,29.39,19.68,50.17,19.68s36.67-6.56,49.03-19.68c12.36-13.12,18.54-30.6,18.54-52.44V59.83Z"/><polygon class="cls-4" points="427.87 207.21 527.82 106.53 547.99 86.21 568.81 107.19 589.33 127.86 610.37 149.06 630.89 169.74 651.56 148.91 672.23 128.08 693.4 106.76 714.15 85.86 734.57 65.29 755.74 43.95 775.91 23.63 755.39 2.97 735.23 23.29 714.05 44.61 693.63 65.18 672.89 86.08 651.71 107.42 631.04 128.23 610 107.03 589.48 86.36 568.66 65.39 548.14 44.72 527.47 65.54 507.3 85.86 386.85 207.21 427.87 207.21 427.87 207.21"/><polygon class="cls-4" points="770.05 155.14 828.46 213.98 869.3 213.98 790.47 134.57 770.05 155.14 770.05 155.14"/></g><g><text class="cls-5" transform="translate(380.71 251.19)"><tspan x="0" y="0">personal trainer academy</tspan></text><rect class="cls-4" y="240.44" width="358.69" height="1.18"/><rect class="cls-4" x="987.89" y="241.54" width="266.09" height=".95"/><g><polygon class="cls-4" points="1253.98 92.59 1253.98 59.83 1117.92 59.83 1117.92 92.59 1167.29 92.59 1167.29 212.26 1204.61 212.26 1204.61 92.59 1253.98 92.59"/><polygon class="cls-4" points="1253.98 92.59 1253.98 59.83 1117.92 59.83 1117.92 92.59 1167.29 92.59 1167.29 212.26 1204.61 212.26 1204.61 92.59 1253.98 92.59"/><polygon class="cls-4" points="1253.98 92.59 1253.98 59.83 1117.92 59.83 1117.92 92.59 1167.29 92.59 1167.29 212.26 1204.61 212.26 1204.61 92.59 1253.98 92.59"/></g><g><rect class="cls-4" x="987.89" y="59.83" width="37.54" height="152.44"/><rect class="cls-4" x="987.89" y="59.83" width="37.54" height="152.44"/><rect class="cls-4" x="987.89" y="59.83" width="37.54" height="152.44"/></g><g><path class="cls-4" d="M358.69,59.83h-37.54v83.73c0,11.52-2.73,20.66-8.19,27.42-5.46,6.75-12.74,10.12-21.84,10.12-9.55,0-17.21-3.38-22.98-10.12-5.77-6.75-8.65-15.89-8.65-27.42V59.83h-37.54v83.73c0,21.84,6.33,39.32,19,52.44,12.67,13.12,29.39,19.68,50.17,19.68s36.67-6.56,49.03-19.68c12.36-13.12,18.54-30.6,18.54-52.44V59.83Z"/><path class="cls-4" d="M358.69,59.83h-37.54v83.73c0,11.52-2.73,20.66-8.19,27.42-5.46,6.75-12.74,10.12-21.84,10.12-9.55,0-17.21-3.38-22.98-10.12-5.77-6.75-8.65-15.89-8.65-27.42V59.83h-37.54v83.73c0,21.84,6.33,39.32,19,52.44,12.67,13.12,29.39,19.68,50.17,19.68s36.67-6.56,49.03-19.68c12.36-13.12,18.54-30.6,18.54-52.44V59.83Z"/><path class="cls-4" d="M358.69,59.83h-37.54v83.73c0,11.52-2.73,20.66-8.19,27.42-5.46,6.75-12.74,10.12-21.84,10.12-9.55,0-17.21-3.38-22.98-10.12-5.77-6.75-8.65-15.89-8.65-27.42V59.83h-37.54v83.73c0,21.84,6.33,39.32,19,52.44,12.67,13.12,29.39,19.68,50.17,19.68s36.67-6.56,49.03-19.68c12.36-13.12,18.54-30.6,18.54-52.44V59.83Z"/></g><path class="cls-4" d="M64.62,56.41c-18.05,0-32.61,4.32-43.69,12.97-11.07,8.64-16.61,20.33-16.61,35.04,0,23.21,13.65,37.92,40.95,44.14l31.85,6.83c5.31,1.06,8.99,2.65,11.03,4.78,2.05,2.12,3.07,5.01,3.07,8.64,0,4.7-2.01,8.5-6.03,11.38-4.02,2.88-9.52,4.33-16.49,4.33-16.38,0-26.39-7.51-30.03-22.53L0,169.49c1.97,14.56,9.14,25.9,21.5,34.01,12.36,8.12,27.42,12.17,45.16,12.17s32.84-4.32,44.82-12.97c11.98-8.64,17.97-20.78,17.97-36.4,0-23.36-13.96-38.15-41.87-44.37l-31.62-7.05c-8.19-1.82-12.29-6.07-12.29-12.74,0-4.4,1.89-8.08,5.69-11.03,3.79-2.96,8.72-4.44,14.79-4.44,6.37,0,12.06,1.86,17.06,5.57,5,3.72,8.19,8.99,9.56,15.81l36.86-7.51c-2.88-13.8-9.94-24.61-21.16-32.43-11.22-7.81-25.18-11.71-41.86-11.71Z"/><g><polygon class="cls-4" points="427.87 207.21 527.82 106.53 547.99 86.21 568.81 107.19 589.33 127.86 610.37 149.06 630.89 169.74 651.56 148.91 672.23 128.08 693.4 106.76 714.15 85.86 734.57 65.29 755.74 43.95 775.91 23.63 755.39 2.97 735.23 23.29 714.05 44.61 693.63 65.18 672.89 86.08 651.71 107.42 631.04 128.23 610 107.03 589.48 86.36 568.66 65.39 548.14 44.72 527.47 65.54 507.3 85.86 386.85 207.21 427.87 207.21 427.87 207.21"/><polygon class="cls-4" points="427.87 207.21 527.82 106.53 547.99 86.21 568.81 107.19 589.33 127.86 610.37 149.06 630.89 169.74 651.56 148.91 672.23 128.08 693.4 106.76 714.15 85.86 734.57 65.29 755.74 43.95 775.91 23.63 755.39 2.97 735.23 23.29 714.05 44.61 693.63 65.18 672.89 86.08 651.71 107.42 631.04 128.23 610 107.03 589.48 86.36 568.66 65.39 548.14 44.72 527.47 65.54 507.3 85.86 386.85 207.21 427.87 207.21 427.87 207.21"/><polygon class="cls-4" points="427.87 207.21 527.82 106.53 547.99 86.21 568.81 107.19 589.33 127.86 610.37 149.06 630.89 169.74 651.56 148.91 672.23 128.08 693.4 106.76 714.15 85.86 734.57 65.29 755.74 43.95 775.91 23.63 755.39 2.97 735.23 23.29 714.05 44.61 693.63 65.18 672.89 86.08 651.71 107.42 631.04 128.23 610 107.03 589.48 86.36 568.66 65.39 548.14 44.72 527.47 65.54 507.3 85.86 386.85 207.21 427.87 207.21 427.87 207.21"/></g><g><polygon class="cls-4" points="770.05 155.14 828.46 213.98 869.3 213.98 790.47 134.57 770.05 155.14 770.05 155.14"/><polygon class="cls-4" points="770.05 155.14 828.46 213.98 869.3 213.98 790.47 134.57 770.05 155.14 770.05 155.14"/><polygon class="cls-4" points="770.05 155.14 828.46 213.98 869.3 213.98 790.47 134.57 770.05 155.14 770.05 155.14"/></g></g></g><g><path class="cls-2" d="M631.91,0c.05.23,0,.4-.26.45.04-.18.14-.32.26-.45Z"/><path class="cls-1" d="M632.76,1.39c.07-.12.14-.17.24-.11.02.01.05.06.04.08-.06.11-.16.07-.28.04Z"/></g></g></g></svg>