<?xml version="1.0" encoding="UTF-8"?>
<svg id="Camada_2" data-name="Camada 2" xmlns="http://www.w3.org/2000/svg" viewBox="0 0 323.94 200.82">
  <defs>
    <style>
      .cls-1 {
        fill: #f8c100;
      }
    </style>
  </defs>
  <g id="Camada_1-2" data-name="Camada 1">
    <g>
      <path class="cls-1" d="M302.68,114.6l-69.14-69.24-22.57,11.91-23.52-23.06L152.93,0l-35.78,36.11-13.62,14.34-13.76-4.8L21.26,114.59h1.89s66.54-57.76,66.54-57.76l14.91,21.88-.49-20.92,24.95-24.92,19.35-19.48,18,29.03-13.98-7.19,12.37,27.84,11.72,8.37-19.41,18.04,7.82,10.97c-2.98,5.01-5.74,8.59-7.39,14.15l33.79-36.99-.43-16.02,11.08,12.27,27.93-19.12c1.77,3.84,2.64,10.54,5.65,13.55,4.79,4.78,10.4,7.41,15.72,11.84l-6.39,8.1,8.34,8.05,21.31,18.15-10.79-23.06c12.31,6.78,25.9,17.7,38.92,23.23Z"/>
      <g>
        <g>
          <path class="cls-1" d="M.82,191.76h3.31c.85,0,1.57.29,2.16.86.58.57.88,1.28.88,2.12s-.29,1.54-.88,2.12c-.59.57-1.31.86-2.16.86h-1.56v2.92H.82v-8.88ZM2.58,196.08h1.56c.37,0,.68-.13.93-.39.25-.26.37-.58.37-.96s-.12-.71-.37-.96c-.25-.25-.55-.38-.93-.38h-1.56v2.69Z"/>
          <path class="cls-1" d="M16.41,196.97v1.99h3.74v1.68h-5.49v-8.88h5.43v1.68h-3.68v1.89h3.36v1.65h-3.36Z"/>
          <path class="cls-1" d="M34.49,200.64h-1.89l-1.79-3.08h-1.33v3.08h-1.75v-8.88h3.55c.82,0,1.52.29,2.09.86.58.57.86,1.27.86,2.08,0,.55-.16,1.06-.47,1.53-.31.47-.73.82-1.24,1.06l1.97,3.35ZM31.28,193.39h-1.8v2.63h1.8c.33,0,.61-.13.85-.39.24-.26.36-.57.36-.93s-.12-.67-.36-.93c-.24-.25-.52-.38-.85-.38Z"/>
          <path class="cls-1" d="M44.75,200.82c-.87,0-1.61-.2-2.21-.58s-1.03-.93-1.28-1.61l1.5-.88c.35.91,1.03,1.36,2.04,1.36.47,0,.83-.09,1.07-.25.24-.17.36-.4.36-.69,0-.31-.14-.55-.42-.72-.28-.18-.78-.37-1.5-.57-.78-.24-1.39-.51-1.84-.82-.56-.41-.84-1.02-.84-1.83s.28-1.45.85-1.92c.57-.48,1.26-.72,2.07-.72.71,0,1.34.17,1.89.52.55.35.98.84,1.28,1.47l-1.47.85c-.36-.76-.92-1.14-1.7-1.14-.35,0-.64.08-.85.25-.21.17-.32.38-.32.64,0,.28.11.51.34.69.25.18.7.36,1.34.56l.61.2c.11.03.3.11.57.21.25.09.44.18.56.27.42.25.69.52.84.79.22.36.33.77.33,1.26,0,.82-.3,1.47-.9,1.95-.6.48-1.38.72-2.32.72Z"/>
          <path class="cls-1" d="M62.87,199.48c-.9.89-1.99,1.33-3.27,1.33s-2.38-.45-3.27-1.33c-.89-.91-1.33-2-1.33-3.29s.44-2.39,1.33-3.27c.9-.9,1.99-1.35,3.27-1.35s2.38.45,3.27,1.35c.9.89,1.34,1.98,1.34,3.27s-.45,2.39-1.34,3.29ZM57.56,198.29c.54.54,1.22.81,2.04.81s1.5-.27,2.04-.81c.55-.55.82-1.25.82-2.09s-.27-1.54-.82-2.09c-.55-.55-1.23-.82-2.04-.82s-1.49.27-2.04.82c-.55.55-.83,1.25-.83,2.09s.28,1.54.83,2.09Z"/>
          <path class="cls-1" d="M76.93,197.17v-5.42h1.75v8.88h-1.33l-3.81-5.43v5.43h-1.75v-8.88h1.33l3.81,5.42Z"/>
          <path class="cls-1" d="M94.29,200.64h-1.9l-.53-1.6h-3.54l-.53,1.6h-1.89l3.11-8.88h2.17l3.12,8.88ZM90.09,193.77l-1.22,3.63h2.44l-1.22-3.63Z"/>
          <path class="cls-1" d="M103.25,191.76v7.21h3.39v1.68h-5.14v-8.88h1.75Z"/>
          <path class="cls-1" d="M122.83,191.76h6.54v1.68h-2.4v7.21h-1.75v-7.21h-2.39v-1.68Z"/>
          <path class="cls-1" d="M143.45,200.64h-1.89l-1.79-3.08h-1.33v3.08h-1.75v-8.88h3.55c.82,0,1.52.29,2.09.86.58.57.86,1.27.86,2.08,0,.55-.16,1.06-.47,1.53-.31.47-.73.82-1.24,1.06l1.97,3.35ZM140.24,193.39h-1.8v2.63h1.8c.33,0,.61-.13.85-.39.24-.26.36-.57.36-.93s-.12-.67-.36-.93c-.24-.25-.52-.38-.85-.38Z"/>
          <path class="cls-1" d="M158.44,200.64h-1.9l-.53-1.6h-3.54l-.53,1.6h-1.89l3.11-8.88h2.17l3.12,8.88ZM154.24,193.77l-1.22,3.63h2.44l-1.22-3.63Z"/>
          <path class="cls-1" d="M165.64,200.64v-8.88h1.75v8.88h-1.75Z"/>
          <path class="cls-1" d="M180.53,197.17v-5.42h1.75v8.88h-1.33l-3.81-5.43v5.43h-1.75v-8.88h1.33l3.81,5.42Z"/>
          <path class="cls-1" d="M192.02,196.97v1.99h3.74v1.68h-5.49v-8.88h5.43v1.68h-3.68v1.89h3.36v1.65h-3.36Z"/>
          <path class="cls-1" d="M210.11,200.64h-1.89l-1.79-3.08h-1.33v3.08h-1.75v-8.88h3.55c.82,0,1.52.29,2.09.86.58.57.86,1.27.86,2.08,0,.55-.16,1.06-.47,1.53-.31.47-.73.82-1.24,1.06l1.97,3.35ZM206.9,193.39h-1.8v2.63h1.8c.33,0,.61-.13.85-.39.24-.26.36-.57.36-.93s-.12-.67-.36-.93c-.24-.25-.52-.38-.85-.38Z"/>
          <path class="cls-1" d="M234.61,200.64h-1.9l-.53-1.6h-3.54l-.53,1.6h-1.89l3.11-8.88h2.17l3.12,8.88ZM230.41,193.77l-1.22,3.63h2.44l-1.22-3.63Z"/>
          <path class="cls-1" d="M245.71,200.82c-1.33,0-2.43-.45-3.31-1.33-.87-.88-1.31-1.98-1.31-3.29s.44-2.42,1.31-3.29c.88-.89,1.98-1.33,3.31-1.33.8,0,1.55.19,2.23.56.68.38,1.21.89,1.59,1.53l-1.51.88c-.22-.4-.53-.71-.94-.93-.41-.22-.86-.34-1.37-.34-.86,0-1.56.27-2.09.81-.52.55-.79,1.25-.79,2.11s.26,1.54.79,2.09c.53.54,1.23.81,2.09.81.51,0,.97-.11,1.38-.34.41-.22.72-.53.93-.92l1.51.88c-.38.64-.91,1.15-1.59,1.53-.68.38-1.42.56-2.23.56Z"/>
          <path class="cls-1" d="M264.53,200.64h-1.9l-.53-1.6h-3.54l-.53,1.6h-1.89l3.11-8.88h2.17l3.12,8.88ZM260.33,193.77l-1.22,3.63h2.44l-1.22-3.63Z"/>
          <path class="cls-1" d="M271.74,191.76h3.53c1.22,0,2.23.43,3.05,1.28.82.85,1.23,1.9,1.23,3.16s-.41,2.31-1.23,3.16c-.81.85-1.83,1.28-3.05,1.28h-3.53v-8.88ZM273.49,198.96h1.78c.77,0,1.4-.25,1.88-.76.48-.52.72-1.19.72-2s-.24-1.48-.72-1.99c-.48-.52-1.11-.77-1.88-.77h-1.78v5.53Z"/>
          <path class="cls-1" d="M288.88,196.97v1.99h3.74v1.68h-5.49v-8.88h5.43v1.68h-3.68v1.89h3.36v1.65h-3.36Z"/>
          <path class="cls-1" d="M307.09,191.76h1.8v8.88h-1.74v-5.76l-2.5,4.12h-.2l-2.5-4.11v5.75h-1.75v-8.88h1.8l2.55,4.2,2.54-4.2Z"/>
          <path class="cls-1" d="M321.94,191.76h1.98l-3.05,5.42v3.46h-1.74v-3.46l-3.03-5.42h1.98l1.93,3.71,1.93-3.71Z"/>
        </g>
        <rect class="cls-1" y="182.29" width="323.94" height="4.09"/>
        <path class="cls-1" d="M50.58,164.85c0,5.16-3.97,9.56-9.23,9.55l-32.54-.02c-4.86,0-8.68-4.18-8.72-8.74l-.1-11,17.49-.03.11,4.88,15.28.11-.03-5.72-26.22-5.07c-3.83-.74-6.55-4.53-6.56-8.3l-.04-15.59c-.01-5.39,3.7-10.19,9.66-10.17l31.87.07c5.07.01,8.92,4.4,8.96,9.09l.11,11.36h-17.51s-.22-4.92-.22-4.92l-14.95-.03c-.41,1.83-.44,3.61-.12,5.87l25.45,4.76c4.03.75,7.26,4.41,7.27,8.65l.03,15.24Z"/>
        <path class="cls-1" d="M104.6,114.63l-.05,50.85c0,4.96-4.46,8.94-9.21,8.93l-29.94-.02c-5.19,0-8.5-4.47-8.87-9.38l-.03-50.35h18.33s.01,44.85.01,44.85l11.43.07-.03-44.88,18.36-.07Z"/>
        <polygon class="cls-1" points="309 174.42 291.5 174.48 291.5 131.15 276.71 131.03 276.71 114.66 323.87 114.66 323.94 130.95 309.09 131.11 309 174.42"/>
        <rect class="cls-1" x="252.52" y="114.61" width="18.65" height="59.99"/>
        <polygon class="cls-1" points="226.2 114.7 214.66 133.76 214.66 133.75 212.55 137.03 199.03 114.71 180.26 114.7 180.29 174.56 198.31 174.59 198.53 151.73 212.62 170.52 213.09 169.88 226.7 151.72 226.92 174.58 244.94 174.55 244.97 114.69 226.2 114.7"/>
        <polygon class="cls-1" points="156.02 114.7 144.47 133.76 144.47 133.75 142.36 137.03 128.85 114.71 110.08 114.7 110.11 174.56 128.13 174.59 128.35 151.73 142.43 170.52 142.9 169.88 156.51 151.72 156.73 174.58 174.75 174.55 174.78 114.69 156.02 114.7"/>
      </g>
    </g>
  </g>
</svg>